# xmcd
#
# Track frame offsets:
#	150
#	20950
#	38744
#	51556
#	70175
#	86610
#	102927
#	118090
#	134428
#	155486
#	172227
#	188380
#	210069
#
# Disc length: 3057 seconds
# Revision: 0
# Processed by: cddbd v1.5.2PL0 Copyright (c) Steve Scherf et al.
# Submitted via: dBpowerAMP V12.0
#
DISCID=b40bef0d
DTITLE=Tara NaySmith - Now's The Time
DYEAR=2009
DGENRE=Country
TTITLE0=It'll Be Me
TTITLE1=This Home Ain't His Home
TTITLE2=Hang On To Your Halo 
TTITLE3=If I Didn't Have You
TTITLE4=Ships
TTITLE5=Don't Say A Word
TTITLE6=Dreams
TTITLE7=People Get Ready
TTITLE8=Just Not Tonight
TTITLE9=Now's The Time
TTITLE10=Do You Wanna Dance 
TTITLE11=Once In A Lifetime Friend
TTITLE12=Who Is That Woman In The Mirror
EXTD=
EXTT0=
EXTT1=
EXTT2=
EXTT3=
EXTT4=
EXTT5=
EXTT6=
EXTT7=
EXTT8=
EXTT9=
EXTT10=
EXTT11=
EXTT12=
PLAYORDER=
